<svg xmlns="http://www.w3.org/2000/svg" viewBox="0 0 600 300" preserveAspectRatio="xMidYMid slice" xmlns:c2pa="http://c2pa.org/manifest"><metadata><c2pa:manifest>AAAWgmp1bWIAAAAeanVtZGMycGEAEQAQgAAAqgA4m3EDYzJwYQAAABZcanVtYgAAAEdqdW1kYzJtYQARABCAAACqADibcQN1cm46YzJwYTo4ODkxYmYwMS1mMDc4LTQxNDQtYWVlZC0zYmNhMmExY2M1MDUAAAADl2p1bWIAAAApanVtZGMyYXMAEQAQgAAAqgA4m3EDYzJwYS5hc3NlcnRpb25zAAAAALxqdW1iAAAARGp1bWRjYm9yABEAEIAAAKoAOJtxE2MycGEuaW5ncmVkaWVudC52MwAAAAAYYzJzaAScfbkiMV1W4kKRGnipjCAAAABwY2JvcqNpZGM6Zm9ybWF0bWltYWdlL3N2Zyt4bWxqaW5zdGFuY2VJRHgseG1wOmlpZDo0ZWVlNTU5Yy02MTA2LTQzNGUtYmQ3Ny04ZTllZDgwNzBjMzNscmVsYXRpb25zaGlwaHBhcmVudE9mAAAB4mp1bWIAAABBanVtZGNib3IAEQAQgAAAqgA4m3ETYzJwYS5hY3Rpb25zLnYyAAAAABhjMnNoYU0PwH5HNTBqxCeyIdSo5wAAAZljYm9yomdhY3Rpb25zgqJmYWN0aW9ua2MycGEub3BlbmVkanBhcmFtZXRlcnOha2luZ3JlZGllbnRzgaJjdXJseC1zZWxmI2p1bWJmPWMycGEuYXNzZXJ0aW9ucy9jMnBhLmluZ3JlZGllbnQudjNkaGFzaFggEzqlnDLyK9a9g9+XOAXt608YUDIm3EQAEm7OYh/gkiakZmFjdGlvbngdY29tLmFudGhyb3BpYy5jbGF1ZGUucHJvdmlkZWRqcGFyYW1ldGVyc6F4H2NvbS5hbnRocm9waWMub3JpZ2luLWNvbmZpZGVuY2VndW5rbm93bmtkZXNjcmlwdGlvbnhmQ2xhdWRlIHByb3ZpZGVkIHRoaXMgZmlsZSBhdCB0aGUgcmVxdWVzdCBvZiBhIHVzZXIgYW5kIG1heSBoYXZlIGNyZWF0ZWQgb3IgbW9kaWZpZWQgdGhlIGZpbGUgY29udGVudHMubXNvZnR3YXJlQWdlbnShZG5hbWVmQ2xhdWRlcmFsbEFjdGlvbnNJbmNsdWRlZPUAAADIanVtYgAAAEBqdW1kY2JvcgARABCAAACqADibcRNjMnBhLmhhc2guZGF0YQAAAAAYYzJzaP6gZwu+j86R4xb7I3DvwN0AAACAY2JvcqVjYWxnZnNoYTI1NmNwYWRNAAAAAAAAAAAAAAAAAGRoYXNoWCCzHmEaV90nJKhldP6OmmWeMsHTCJqNXOOfuVH+m+Wch2RuYW1lbmp1bWJmIG1hbmlmZXN0amV4Y2x1c2lvbnOBomVzdGFydBiiZmxlbmd0aBkeBAAAAj5qdW1iAAAAJ2p1bWRjMmNsABEAEIAAAKoAOJtxA2MycGEuY2xhaW0udjIAAAACD2Nib3KlY2FsZ2ZzaGEyNTZpc2lnbmF0dXJleE1zZWxmI2p1bWJmPS9jMnBhL3VybjpjMnBhOjg4OTFiZjAxLWYwNzgtNDE0NC1hZWVkLTNiY2EyYTFjYzUwNS9jMnBhLnNpZ25hdHVyZWppbnN0YW5jZUlEeCx4bXA6aWlkOjU4NTQ2YTE1LTNkNDAtNGU0ZS1iMGRmLWQxNmI5OWY4Njg3ZHJjcmVhdGVkX2Fzc2VydGlvbnODomN1cmx4LXNlbGYjanVtYmY9YzJwYS5hc3NlcnRpb25zL2MycGEuaW5ncmVkaWVudC52M2RoYXNoWCATOqWcMvIr1r2D35c4Be3rTxhQMibcRAASbs5iH+CSJqJjdXJseCpzZWxmI2p1bWJmPWMycGEuYXNzZXJ0aW9ucy9jMnBhLmFjdGlvbnMudjJkaGFzaFggdwxK1d/B4/lNTAW8sU8oNIwRXLmMgSUhlsgdxRFh6liiY3VybHgpc2VsZiNqdW1iZj1jMnBhLmFzc2VydGlvbnMvYzJwYS5oYXNoLmRhdGFkaGFzaFgg4cFXz29DTM5ZRnIvo/71b+efuOH5Ug2yx+ljbSyEks10Y2xhaW1fZ2VuZXJhdG9yX2luZm+jZG5hbWVvQW50aHJvcGljIEZpbGVzZ3ZlcnNpb25lMS4wLjBrc3BlY1ZlcnNpb25lMi40LjAAABA4anVtYgAAAChqdW1kYzJjcwARABCAAACqADibcQNjMnBhLnNpZ25hdHVyZQAAABAIY2JvctKEWQISogEmGCFZAgowggIGMIIBjaADAgECAhRA5aAK7sI50L64g/oGQgU9Z1UTADAKBggqhkjOPQQDAzBJMRcwFQYDVQQKEw5BbnRocm9waWMsIFBCQzEuMCwGA1UEAxMlQW50aHJvcGljIENvbnRlbnQgQ3JlZGVudGlhbHMgUm9vdCBDQTAeFw0yNjA4MDcxODQzNTZaFw0yODA4MDYxOTQzNTZaMEQxFzAVBgNVBAoTDkFudGhyb3BpYywgUEJDMSkwJwYDVQQDEyBBbnRocm9waWMgQ2xhdWRlIENvbnRlbnQgU2lnbmluZzBZMBMGByqGSM49AgEGCCqGSM49AwEHA0IABJh6CmvLUBgFFNU0vUKlOVtE6djd17L5SuwX0LemFisBM3dkd/3cyjxFA3Qo5S46fX0/ihY0VZ7mfb9KF703t5OjWDBWMA4GA1UdDwEB/wQEAwIHgDAVBgNVHSUEDjAMBgorBgEEAYPoXgIBMAwGA1UdEwEB/wQCMAAwHwYDVR0jBBgwFoAUzlHiBIFOZFsj+OPEz5o+nMHXXMIwCgYIKoZIzj0EAwMDZwAwZAIwMXMdFJ4BetLLVY7ORuE9noqbbAZOZn/aArXyTwFAZfKrPzxF2vPoJNf1+UCdg1XGAjBwX1zd9WGqYkqmL5SFqw1QySjr1zJfpJM9+1rdDwSPLMOPOjKuiXjoU/pUUeG9RwmhY3BhZFkNngAAAAAAAAAAAAAAAAAAAAAAAAAAAAAAAAAAAAAAAAAAAAAAAAAAAAAAAAAAAAAAAAAAAAAAAAAAAAAAAAAAAAAAAAAAAAAAAAAAAAAAAAAAAAAAAAAAAAAAAAAAAAAAAAAAAAAAAAAAAAAAAAAAAAAAAAAAAAAAAAAAAAAAAAAAAAAAAAAAAAAAAAAAAAAAAAAAAAAAAAAAAAAAAAAAAAAAAAAAAAAAAAAAAAAAAAAAAAAAAAAAAAAAAAAAAAAAAAAAAAAAAAAAAAAAAAAAAAAAAAAAAAAAAAAAAAAAAAAAAAAAAAAAAAAAAAAAAAAAAAAAAAAAAAAAAAAAAAAAAAAAAAAAAAAAAAAAAAAAAAAAAAAAAAAAAAAAAAAAAAAAAAAAAAAAAAAAAAAAAAAAAAAAAAAAAAAAAAAAAAAAAAAAAAAAAAAAAAAAAAAAAAAAAAAAAAAAAAAAAAAAAAAAAAAAAAAAAAAAAAAAAAAAAAAAAAAAAAAAAAAAAAAAAAAAAAAAAAAAAAAAAAAAAAAAAAAAAAAAAAAAAAAAAAAAAAAAAAAAAAAAAAAAAAAAAAAAAAAAAAAAAAAAAAAAAAAAAAAAAAAAAAAAAAAAAAAAAAAAAAAAAAAAAAAAAAAAAAAAAAAAAAAAAAAAAAAAAAAAAAAAAAAAAAAAAAAAAAAAAAAAAAAAAAAAAAAAAAAAAAAAAAAAAAAAAAAAAAAAAAAAAAAAAAAAAAAAAAAAAAAAAAAAAAAAAAAAAAAAAAAAAAAAAAAAAAAAAAAAAAAAAAAAAAAAAAAAAAAAAAAAAAAAAAAAAAAAAAAAAAAAAAAAAAAAAAAAAAAAAAAAAAAAAAAAAAAAAAAAAAAAAAAAAAAAAAAAAAAAAAAAAAAAAAAAAAAAAAAAAAAAAAAAAAAAAAAAAAAAAAAAAAAAAAAAAAAAAAAAAAAAAAAAAAAAAAAAAAAAAAAAAAAAAAAAAAAAAAAAAAAAAAAAAAAAAAAAAAAAAAAAAAAAAAAAAAAAAAAAAAAAAAAAAAAAAAAAAAAAAAAAAAAAAAAAAAAAAAAAAAAAAAAAAAAAAAAAAAAAAAAAAAAAAAAAAAAAAAAAAAAAAAAAAAAAAAAAAAAAAAAAAAAAAAAAAAAAAAAAAAAAAAAAAAAAAAAAAAAAAAAAAAAAAAAAAAAAAAAAAAAAAAAAAAAAAAAAAAAAAAAAAAAAAAAAAAAAAAAAAAAAAAAAAAAAAAAAAAAAAAAAAAAAAAAAAAAAAAAAAAAAAAAAAAAAAAAAAAAAAAAAAAAAAAAAAAAAAAAAAAAAAAAAAAAAAAAAAAAAAAAAAAAAAAAAAAAAAAAAAAAAAAAAAAAAAAAAAAAAAAAAAAAAAAAAAAAAAAAAAAAAAAAAAAAAAAAAAAAAAAAAAAAAAAAAAAAAAAAAAAAAAAAAAAAAAAAAAAAAAAAAAAAAAAAAAAAAAAAAAAAAAAAAAAAAAAAAAAAAAAAAAAAAAAAAAAAAAAAAAAAAAAAAAAAAAAAAAAAAAAAAAAAAAAAAAAAAAAAAAAAAAAAAAAAAAAAAAAAAAAAAAAAAAAAAAAAAAAAAAAAAAAAAAAAAAAAAAAAAAAAAAAAAAAAAAAAAAAAAAAAAAAAAAAAAAAAAAAAAAAAAAAAAAAAAAAAAAAAAAAAAAAAAAAAAAAAAAAAAAAAAAAAAAAAAAAAAAAAAAAAAAAAAAAAAAAAAAAAAAAAAAAAAAAAAAAAAAAAAAAAAAAAAAAAAAAAAAAAAAAAAAAAAAAAAAAAAAAAAAAAAAAAAAAAAAAAAAAAAAAAAAAAAAAAAAAAAAAAAAAAAAAAAAAAAAAAAAAAAAAAAAAAAAAAAAAAAAAAAAAAAAAAAAAAAAAAAAAAAAAAAAAAAAAAAAAAAAAAAAAAAAAAAAAAAAAAAAAAAAAAAAAAAAAAAAAAAAAAAAAAAAAAAAAAAAAAAAAAAAAAAAAAAAAAAAAAAAAAAAAAAAAAAAAAAAAAAAAAAAAAAAAAAAAAAAAAAAAAAAAAAAAAAAAAAAAAAAAAAAAAAAAAAAAAAAAAAAAAAAAAAAAAAAAAAAAAAAAAAAAAAAAAAAAAAAAAAAAAAAAAAAAAAAAAAAAAAAAAAAAAAAAAAAAAAAAAAAAAAAAAAAAAAAAAAAAAAAAAAAAAAAAAAAAAAAAAAAAAAAAAAAAAAAAAAAAAAAAAAAAAAAAAAAAAAAAAAAAAAAAAAAAAAAAAAAAAAAAAAAAAAAAAAAAAAAAAAAAAAAAAAAAAAAAAAAAAAAAAAAAAAAAAAAAAAAAAAAAAAAAAAAAAAAAAAAAAAAAAAAAAAAAAAAAAAAAAAAAAAAAAAAAAAAAAAAAAAAAAAAAAAAAAAAAAAAAAAAAAAAAAAAAAAAAAAAAAAAAAAAAAAAAAAAAAAAAAAAAAAAAAAAAAAAAAAAAAAAAAAAAAAAAAAAAAAAAAAAAAAAAAAAAAAAAAAAAAAAAAAAAAAAAAAAAAAAAAAAAAAAAAAAAAAAAAAAAAAAAAAAAAAAAAAAAAAAAAAAAAAAAAAAAAAAAAAAAAAAAAAAAAAAAAAAAAAAAAAAAAAAAAAAAAAAAAAAAAAAAAAAAAAAAAAAAAAAAAAAAAAAAAAAAAAAAAAAAAAAAAAAAAAAAAAAAAAAAAAAAAAAAAAAAAAAAAAAAAAAAAAAAAAAAAAAAAAAAAAAAAAAAAAAAAAAAAAAAAAAAAAAAAAAAAAAAAAAAAAAAAAAAAAAAAAAAAAAAAAAAAAAAAAAAAAAAAAAAAAAAAAAAAAAAAAAAAAAAAAAAAAAAAAAAAAAAAAAAAAAAAAAAAAAAAAAAAAAAAAAAAAAAAAAAAAAAAAAAAAAAAAAAAAAAAAAAAAAAAAAAAAAAAAAAAAAAAAAAAAAAAAAAAAAAAAAAAAAAAAAAAAAAAAAAAAAAAAAAAAAAAAAAAAAAAAAAAAAAAAAAAAAAAAAAAAAAAAAAAAAAAAAAAAAAAAAAAAAAAAAAAAAAAAAAAAAAAAAAAAAAAAAAAAAAAAAAAAAAAAAAAAAAAAAAAAAAAAAAAAAAAAAAAAAAAAAAAAAAAAAAAAAAAAAAAAAAAAAAAAAAAAAAAAAAAAAAAAAAAAAAAAAAAAAAAAAAAAAAAAAAAAAAAAAAAAAAAAAAAAAAAAAAAAAAAAAAAAAAAAAAAAAAAAAAAAAAAAAAAAAAAAAAAAAAAAAAAAAAAAAAAAAAAAAAAAAAAAAAAAAAAAAAAAAAAAAAAAAAAAAAAAAAAAAAAAAAAAAAAAAAAAAAAAAAAAAAAAAAAAAAAAAAAAAAAAAAAAAAAAAAAAAAAAAAAAAAAAAAAAAAAAAAAAAAAAAAAAAAAAAAAAAAAAAAAAAAAAAAAAAAAAAAAAAAAAAAAAAAAAAAAAAAAAAAAAAAAAAAAAAAAAAAAAAAAAAAAAAAAAAAAAAAAAAAAAAAAAAAAAAAAAAAAAAAAAAAAAAAAAAAAAAAAAAAAAAAAAAAAAAAAAAAAAAAAAAAAAAAAAAAAAAAAAAAAAAAAAAAAAAAAAAAAAAAAAAAAAAAAAAAAAAAAAAAAAAAAAAAAAAAAAAAAAAAAAAAAAAAAAAAAAAAAAAAAAAAAAAAAAAAAAAAAAAAAAAAAAAAAAAAAAAAAAAAAAAAAAAAAAAAAAAAAAAAAAAAAAAAAAAAAAAAAAAAAAAAAAAAAAAAAAAAAAAAAAAAAAAAAAAAAAAAAAAAAAAAAAAAAAAAAAAAAAAAAAAAAAAAAAAAAAAAAAAAAAAAAAAAAAAAAAAAAAAAAAAAAAAAAAAAAAAAAAAAAAAAAAAAAAAAAAAAAAAAAAAAAAAAAAAAAAAAAAAAAAAAAAAAAAAAAAAAAAAAAAAAAAAAAAAAAAAAAAAAAAAAAAAAAAAAAAAAAAAAAAAAAAAAAAAAAAAAAAAAAAAAAAAAAAAAAAAAAAAAAAAAAAAAAAAAAAAAAAAAAAAAAAAAAAAAAAAAAAAAAAAAAAAAAAAAAAAAAAAAAAAAAAAAAAAAAAAAAAAAAAAAAAAAAAAAAAAAAAAAAAAAAAAAAAAAAAAAAAAAAAAAAAAAAAAAAAAAAAAAAAAAAAAAAAAAAAAAAAAAAAAAAAAAAAAAAAAAAAAAAAAAAAAAAAAAAAAAAAAAAAAAAAAAAAAAAAAAAAAAAAAAAAAAAAAAAAAAAAAAAAAAAAAAAAAAAAAAAAAAAAAAAAAAAAAAAAAAAAAAAAAAAAAAAAAAAAAAAAAAAAAAAAAAAAAAAAAAAAAAAAAAAAAAAAAAAAAAAAAAAAAAAAAAAAAAAAAAAAAAAAAAAAAAAAAAAAAAAAAAAAAAAAAAAAAAAAAAAAAAAAAAAAAAAAAAAAAAAAAAAAAAAAAAAAAAAAAAAAAAAAAAAAAAAAAAAAAAAAAAAAAAAAAAAAAAAAAAAAAAAAAAAAAAAAAAAAAAAAAAAAAAAAAAAAAAAAAAAAAAAAAAAAAAAAAAAAAAAAAAAAAAAAAAAAAAAAAAAAAAAAAAAAAAAAAAAAAAAAAAAAAAAAAAAAAAAAAAAAAAAAAAAAAAAAAAAAAAAAAAAAAAAAAAAAAAAAAAAAAAAAAAAAAAAAAAAAAAAAAAAAAAAAAAAAAAAAAAAAAAAAAAAAAAAAAAAAAAAAAAAAAPZYQJrCiQGM+JVbduA7F/Kdo1dj7jVqLhEeKIdg/buPfmyWHR6ikydOGpjsN4UmhUPRq3RVDyUHHw/vgvk1WvwApVU=</c2pa:manifest></metadata><defs><linearGradient id="bg" x1="0" y1="0" x2="1" y2="1"><stop offset="0" stop-color="#321041"/><stop offset="1" stop-color="#15081b"/></linearGradient><radialGradient id="gl" cx="261" cy="125" r="230" gradientUnits="userSpaceOnUse"><stop offset="0" stop-color="#b71ff9" stop-opacity=".62"/><stop offset="1" stop-color="#b71ff9" stop-opacity="0"/></radialGradient><radialGradient id="gl2" cx="469" cy="195" r="170" gradientUnits="userSpaceOnUse"><stop offset="0" stop-color="#f994e8" stop-opacity=".30"/><stop offset="1" stop-color="#f994e8" stop-opacity="0"/></radialGradient><linearGradient id="g1" x1="0" y1="0" x2="1" y2="1"><stop offset="0" stop-color="#e4b1fa"/><stop offset="1" stop-color="#bb42ef"/></linearGradient><linearGradient id="g2" x1="0" y1="0" x2="1" y2="0"><stop offset="0" stop-color="#bb42ef"/><stop offset="1" stop-color="#611682"/></linearGradient><linearGradient id="g3" x1="0" y1="0" x2="1" y2="1"><stop offset="0" stop-color="#e4b1fa"/><stop offset="1" stop-color="#bb42ef"/></linearGradient><linearGradient id="g4" x1="0" y1="0" x2="1" y2="0"><stop offset="0" stop-color="#bb42ef"/><stop offset="1" stop-color="#611682"/></linearGradient><linearGradient id="g5" x1="0" y1="0" x2="1" y2="1"><stop offset="0" stop-color="#e4b1fa"/><stop offset="1" stop-color="#bb42ef"/></linearGradient><linearGradient id="g6" x1="0" y1="0" x2="1" y2="0"><stop offset="0" stop-color="#bb42ef"/><stop offset="1" stop-color="#611682"/></linearGradient><linearGradient id="g7" x1="0" y1="0" x2="1" y2="1"><stop offset="0" stop-color="#e4b1fa"/><stop offset="1" stop-color="#bb42ef"/></linearGradient><linearGradient id="g8" x1="0" y1="0" x2="1" y2="0"><stop offset="0" stop-color="#bb42ef"/><stop offset="1" stop-color="#611682"/></linearGradient><linearGradient id="g9" x1="0" y1="0" x2="1" y2="1"><stop offset="0" stop-color="#e4b1fa"/><stop offset="1" stop-color="#bb42ef"/></linearGradient><linearGradient id="g10" x1="0" y1="0" x2="1" y2="0"><stop offset="0" stop-color="#bb42ef"/><stop offset="1" stop-color="#611682"/></linearGradient><linearGradient id="g11" x1="0" y1="0" x2="1" y2="1"><stop offset="0" stop-color="#e4b1fa"/><stop offset="1" stop-color="#bb42ef"/></linearGradient><linearGradient id="g12" x1="0" y1="0" x2="1" y2="0"><stop offset="0" stop-color="#bb42ef"/><stop offset="1" stop-color="#611682"/></linearGradient><linearGradient id="g13" x1="0" y1="0" x2="1" y2="1"><stop offset="0" stop-color="#e4b1fa"/><stop offset="1" stop-color="#bb42ef"/></linearGradient><linearGradient id="g14" x1="0" y1="0" x2="1" y2="0"><stop offset="0" stop-color="#bb42ef"/><stop offset="1" stop-color="#611682"/></linearGradient><linearGradient id="g15" x1="0" y1="0" x2="1" y2="1"><stop offset="0" stop-color="#e4b1fa"/><stop offset="1" stop-color="#bb42ef"/></linearGradient><linearGradient id="g16" x1="0" y1="0" x2="1" y2="1"><stop offset="0" stop-color="#bb42ef"/><stop offset="1" stop-color="#611682"/></linearGradient><linearGradient id="g17" x1="0" y1="0" x2="0" y2="1"><stop offset="0" stop-color="#611682"/><stop offset="1" stop-color="#3a0d4e"/></linearGradient></defs><rect width="600" height="300" fill="url(#bg)"/><rect width="600" height="300" fill="url(#gl)"/><rect width="600" height="300" fill="url(#gl2)"/><path d="M-20 268 C150 172 330 272 620 218" fill="none" stroke="#e4b1fa" stroke-opacity=".18" stroke-width="2"/><path d="M-20 263 C170 177 350 277 620 253" fill="none" stroke="#e4b1fa" stroke-opacity=".10" stroke-width="2"/><g transform="translate(235 146) scale(1.18) translate(-235 -146)"><ellipse cx="235" cy="262" rx="192" ry="23" fill="#000" fill-opacity=".38"/><ellipse cx="-3.0" cy="255.0" rx="24.0" ry="8.2" fill="#3a0d4e"/><rect x="-27.0" y="246.8" width="48.0" height="8.2" fill="url(#g2)"/><ellipse cx="-3.0" cy="246.8" rx="24.0" ry="8.2" fill="url(#g1)"/><ellipse cx="-3.0" cy="246.8" rx="16.3" ry="5.3" fill="none" stroke="#fff" stroke-opacity=".4" stroke-width="1.5"/><ellipse cx="473.0" cy="253.0" rx="27.5" ry="9.4" fill="#3a0d4e"/><rect x="445.5" y="243.7" width="55.0" height="9.4" fill="url(#g4)"/><ellipse cx="473.0" cy="243.7" rx="27.5" ry="9.4" fill="url(#g3)"/><ellipse cx="473.0" cy="243.7" rx="18.7" ry="6.0" fill="none" stroke="#fff" stroke-opacity=".4" stroke-width="1.5"/><ellipse cx="473.0" cy="243.7" rx="27.5" ry="9.4" fill="#3a0d4e"/><rect x="445.5" y="234.3" width="55.0" height="9.4" fill="url(#g4)"/><ellipse cx="473.0" cy="234.3" rx="27.5" ry="9.4" fill="url(#g3)"/><ellipse cx="473.0" cy="234.3" rx="18.7" ry="6.0" fill="none" stroke="#fff" stroke-opacity=".4" stroke-width="1.5"/><ellipse cx="473.0" cy="234.3" rx="27.5" ry="9.4" fill="#3a0d4e"/><rect x="445.5" y="224.9" width="55.0" height="9.4" fill="url(#g4)"/><ellipse cx="473.0" cy="224.9" rx="27.5" ry="9.4" fill="url(#g3)"/><ellipse cx="473.0" cy="224.9" rx="18.7" ry="6.0" fill="none" stroke="#fff" stroke-opacity=".4" stroke-width="1.5"/><ellipse cx="473.0" cy="224.9" rx="27.5" ry="9.4" fill="#3a0d4e"/><rect x="445.5" y="215.6" width="55.0" height="9.4" fill="url(#g4)"/><ellipse cx="473.0" cy="215.6" rx="27.5" ry="9.4" fill="url(#g3)"/><ellipse cx="473.0" cy="215.6" rx="18.7" ry="6.0" fill="none" stroke="#fff" stroke-opacity=".4" stroke-width="1.5"/><ellipse cx="473.0" cy="215.6" rx="27.5" ry="9.4" fill="#3a0d4e"/><rect x="445.5" y="206.2" width="55.0" height="9.4" fill="url(#g4)"/><ellipse cx="473.0" cy="206.2" rx="27.5" ry="9.4" fill="url(#g3)"/><ellipse cx="473.0" cy="206.2" rx="18.7" ry="6.0" fill="none" stroke="#fff" stroke-opacity=".4" stroke-width="1.5"/><ellipse cx="473.0" cy="206.2" rx="27.5" ry="9.4" fill="#3a0d4e"/><rect x="445.5" y="196.9" width="55.0" height="9.4" fill="url(#g4)"/><ellipse cx="473.0" cy="196.9" rx="27.5" ry="9.4" fill="url(#g3)"/><ellipse cx="473.0" cy="196.9" rx="18.7" ry="6.0" fill="none" stroke="#fff" stroke-opacity=".4" stroke-width="1.5"/><ellipse cx="473.0" cy="196.9" rx="27.5" ry="9.4" fill="#3a0d4e"/><rect x="445.5" y="187.5" width="55.0" height="9.4" fill="url(#g4)"/><ellipse cx="473.0" cy="187.5" rx="27.5" ry="9.4" fill="url(#g3)"/><ellipse cx="473.0" cy="187.5" rx="18.7" ry="6.0" fill="none" stroke="#fff" stroke-opacity=".4" stroke-width="1.5"/><ellipse cx="76.3" cy="257.0" rx="23.0" ry="7.8" fill="#3a0d4e"/><rect x="53.3" y="249.2" width="46.0" height="7.8" fill="url(#g6)"/><ellipse cx="76.3" cy="249.2" rx="23.0" ry="7.8" fill="url(#g5)"/><ellipse cx="76.3" cy="249.2" rx="15.6" ry="5.1" fill="none" stroke="#fff" stroke-opacity=".4" stroke-width="1.5"/><ellipse cx="76.3" cy="249.2" rx="23.0" ry="7.8" fill="#3a0d4e"/><rect x="53.3" y="241.4" width="46.0" height="7.8" fill="url(#g6)"/><ellipse cx="76.3" cy="241.4" rx="23.0" ry="7.8" fill="url(#g5)"/><ellipse cx="76.3" cy="241.4" rx="15.6" ry="5.1" fill="none" stroke="#fff" stroke-opacity=".4" stroke-width="1.5"/><ellipse cx="76.3" cy="241.4" rx="23.0" ry="7.8" fill="#3a0d4e"/><rect x="53.3" y="233.5" width="46.0" height="7.8" fill="url(#g6)"/><ellipse cx="76.3" cy="233.5" rx="23.0" ry="7.8" fill="url(#g5)"/><ellipse cx="76.3" cy="233.5" rx="15.6" ry="5.1" fill="none" stroke="#fff" stroke-opacity=".4" stroke-width="1.5"/><ellipse cx="76.3" cy="233.5" rx="23.0" ry="7.8" fill="#3a0d4e"/><rect x="53.3" y="225.7" width="46.0" height="7.8" fill="url(#g6)"/><ellipse cx="76.3" cy="225.7" rx="23.0" ry="7.8" fill="url(#g5)"/><ellipse cx="76.3" cy="225.7" rx="15.6" ry="5.1" fill="none" stroke="#fff" stroke-opacity=".4" stroke-width="1.5"/><ellipse cx="76.3" cy="225.7" rx="23.0" ry="7.8" fill="#3a0d4e"/><rect x="53.3" y="217.9" width="46.0" height="7.8" fill="url(#g6)"/><ellipse cx="76.3" cy="217.9" rx="23.0" ry="7.8" fill="url(#g5)"/><ellipse cx="76.3" cy="217.9" rx="15.6" ry="5.1" fill="none" stroke="#fff" stroke-opacity=".4" stroke-width="1.5"/><ellipse cx="393.7" cy="255.0" rx="27.5" ry="9.4" fill="#3a0d4e"/><rect x="366.2" y="245.7" width="55.0" height="9.4" fill="url(#g8)"/><ellipse cx="393.7" cy="245.7" rx="27.5" ry="9.4" fill="url(#g7)"/><ellipse cx="393.7" cy="245.7" rx="18.7" ry="6.0" fill="none" stroke="#fff" stroke-opacity=".4" stroke-width="1.5"/><ellipse cx="393.7" cy="245.7" rx="27.5" ry="9.4" fill="#3a0d4e"/><rect x="366.2" y="236.3" width="55.0" height="9.4" fill="url(#g8)"/><ellipse cx="393.7" cy="236.3" rx="27.5" ry="9.4" fill="url(#g7)"/><ellipse cx="393.7" cy="236.3" rx="18.7" ry="6.0" fill="none" stroke="#fff" stroke-opacity=".4" stroke-width="1.5"/><ellipse cx="393.7" cy="236.3" rx="27.5" ry="9.4" fill="#3a0d4e"/><rect x="366.2" y="226.9" width="55.0" height="9.4" fill="url(#g8)"/><ellipse cx="393.7" cy="226.9" rx="27.5" ry="9.4" fill="url(#g7)"/><ellipse cx="393.7" cy="226.9" rx="18.7" ry="6.0" fill="none" stroke="#fff" stroke-opacity=".4" stroke-width="1.5"/><ellipse cx="393.7" cy="226.9" rx="27.5" ry="9.4" fill="#3a0d4e"/><rect x="366.2" y="217.6" width="55.0" height="9.4" fill="url(#g8)"/><ellipse cx="393.7" cy="217.6" rx="27.5" ry="9.4" fill="url(#g7)"/><ellipse cx="393.7" cy="217.6" rx="18.7" ry="6.0" fill="none" stroke="#fff" stroke-opacity=".4" stroke-width="1.5"/><ellipse cx="155.7" cy="257.0" rx="26.5" ry="9.0" fill="#3a0d4e"/><rect x="129.2" y="248.0" width="53.0" height="9.0" fill="url(#g10)"/><ellipse cx="155.7" cy="248.0" rx="26.5" ry="9.0" fill="url(#g9)"/><ellipse cx="155.7" cy="248.0" rx="18.0" ry="5.8" fill="none" stroke="#fff" stroke-opacity=".4" stroke-width="1.5"/><ellipse cx="155.7" cy="248.0" rx="26.5" ry="9.0" fill="#3a0d4e"/><rect x="129.2" y="239.0" width="53.0" height="9.0" fill="url(#g10)"/><ellipse cx="155.7" cy="239.0" rx="26.5" ry="9.0" fill="url(#g9)"/><ellipse cx="155.7" cy="239.0" rx="18.0" ry="5.8" fill="none" stroke="#fff" stroke-opacity=".4" stroke-width="1.5"/><ellipse cx="155.7" cy="239.0" rx="26.5" ry="9.0" fill="#3a0d4e"/><rect x="129.2" y="230.0" width="53.0" height="9.0" fill="url(#g10)"/><ellipse cx="155.7" cy="230.0" rx="26.5" ry="9.0" fill="url(#g9)"/><ellipse cx="155.7" cy="230.0" rx="18.0" ry="5.8" fill="none" stroke="#fff" stroke-opacity=".4" stroke-width="1.5"/><ellipse cx="155.7" cy="230.0" rx="26.5" ry="9.0" fill="#3a0d4e"/><rect x="129.2" y="221.0" width="53.0" height="9.0" fill="url(#g10)"/><ellipse cx="155.7" cy="221.0" rx="26.5" ry="9.0" fill="url(#g9)"/><ellipse cx="155.7" cy="221.0" rx="18.0" ry="5.8" fill="none" stroke="#fff" stroke-opacity=".4" stroke-width="1.5"/><ellipse cx="155.7" cy="221.0" rx="26.5" ry="9.0" fill="#3a0d4e"/><rect x="129.2" y="211.9" width="53.0" height="9.0" fill="url(#g10)"/><ellipse cx="155.7" cy="211.9" rx="26.5" ry="9.0" fill="url(#g9)"/><ellipse cx="155.7" cy="211.9" rx="18.0" ry="5.8" fill="none" stroke="#fff" stroke-opacity=".4" stroke-width="1.5"/><ellipse cx="314.3" cy="256.0" rx="25.0" ry="8.5" fill="#3a0d4e"/><rect x="289.3" y="247.5" width="50.0" height="8.5" fill="url(#g12)"/><ellipse cx="314.3" cy="247.5" rx="25.0" ry="8.5" fill="url(#g11)"/><ellipse cx="314.3" cy="247.5" rx="17.0" ry="5.5" fill="none" stroke="#fff" stroke-opacity=".4" stroke-width="1.5"/><ellipse cx="314.3" cy="247.5" rx="25.0" ry="8.5" fill="#3a0d4e"/><rect x="289.3" y="239.0" width="50.0" height="8.5" fill="url(#g12)"/><ellipse cx="314.3" cy="239.0" rx="25.0" ry="8.5" fill="url(#g11)"/><ellipse cx="314.3" cy="239.0" rx="17.0" ry="5.5" fill="none" stroke="#fff" stroke-opacity=".4" stroke-width="1.5"/><ellipse cx="314.3" cy="239.0" rx="25.0" ry="8.5" fill="#3a0d4e"/><rect x="289.3" y="230.5" width="50.0" height="8.5" fill="url(#g12)"/><ellipse cx="314.3" cy="230.5" rx="25.0" ry="8.5" fill="url(#g11)"/><ellipse cx="314.3" cy="230.5" rx="17.0" ry="5.5" fill="none" stroke="#fff" stroke-opacity=".4" stroke-width="1.5"/><ellipse cx="314.3" cy="230.5" rx="25.0" ry="8.5" fill="#3a0d4e"/><rect x="289.3" y="222.0" width="50.0" height="8.5" fill="url(#g12)"/><ellipse cx="314.3" cy="222.0" rx="25.0" ry="8.5" fill="url(#g11)"/><ellipse cx="314.3" cy="222.0" rx="17.0" ry="5.5" fill="none" stroke="#fff" stroke-opacity=".4" stroke-width="1.5"/><ellipse cx="314.3" cy="222.0" rx="25.0" ry="8.5" fill="#3a0d4e"/><rect x="289.3" y="213.5" width="50.0" height="8.5" fill="url(#g12)"/><ellipse cx="314.3" cy="213.5" rx="25.0" ry="8.5" fill="url(#g11)"/><ellipse cx="314.3" cy="213.5" rx="17.0" ry="5.5" fill="none" stroke="#fff" stroke-opacity=".4" stroke-width="1.5"/><ellipse cx="314.3" cy="213.5" rx="25.0" ry="8.5" fill="#3a0d4e"/><rect x="289.3" y="205.0" width="50.0" height="8.5" fill="url(#g12)"/><ellipse cx="314.3" cy="205.0" rx="25.0" ry="8.5" fill="url(#g11)"/><ellipse cx="314.3" cy="205.0" rx="17.0" ry="5.5" fill="none" stroke="#fff" stroke-opacity=".4" stroke-width="1.5"/><ellipse cx="314.3" cy="205.0" rx="25.0" ry="8.5" fill="#3a0d4e"/><rect x="289.3" y="196.5" width="50.0" height="8.5" fill="url(#g12)"/><ellipse cx="314.3" cy="196.5" rx="25.0" ry="8.5" fill="url(#g11)"/><ellipse cx="314.3" cy="196.5" rx="17.0" ry="5.5" fill="none" stroke="#fff" stroke-opacity=".4" stroke-width="1.5"/><ellipse cx="235.0" cy="254.0" rx="28.0" ry="9.5" fill="#3a0d4e"/><rect x="207.0" y="244.5" width="56.0" height="9.5" fill="url(#g14)"/><ellipse cx="235.0" cy="244.5" rx="28.0" ry="9.5" fill="url(#g13)"/><ellipse cx="235.0" cy="244.5" rx="19.0" ry="6.2" fill="none" stroke="#fff" stroke-opacity=".4" stroke-width="1.5"/><ellipse cx="235.0" cy="244.5" rx="28.0" ry="9.5" fill="#3a0d4e"/><rect x="207.0" y="235.0" width="56.0" height="9.5" fill="url(#g14)"/><ellipse cx="235.0" cy="235.0" rx="28.0" ry="9.5" fill="url(#g13)"/><ellipse cx="235.0" cy="235.0" rx="19.0" ry="6.2" fill="none" stroke="#fff" stroke-opacity=".4" stroke-width="1.5"/><ellipse cx="235.0" cy="235.0" rx="28.0" ry="9.5" fill="#3a0d4e"/><rect x="207.0" y="225.4" width="56.0" height="9.5" fill="url(#g14)"/><ellipse cx="235.0" cy="225.4" rx="28.0" ry="9.5" fill="url(#g13)"/><ellipse cx="235.0" cy="225.4" rx="19.0" ry="6.2" fill="none" stroke="#fff" stroke-opacity=".4" stroke-width="1.5"/><ellipse cx="235.0" cy="225.4" rx="28.0" ry="9.5" fill="#3a0d4e"/><rect x="207.0" y="215.9" width="56.0" height="9.5" fill="url(#g14)"/><ellipse cx="235.0" cy="215.9" rx="28.0" ry="9.5" fill="url(#g13)"/><ellipse cx="235.0" cy="215.9" rx="19.0" ry="6.2" fill="none" stroke="#fff" stroke-opacity=".4" stroke-width="1.5"/><ellipse cx="235.0" cy="215.9" rx="28.0" ry="9.5" fill="#3a0d4e"/><rect x="207.0" y="206.4" width="56.0" height="9.5" fill="url(#g14)"/><ellipse cx="235.0" cy="206.4" rx="28.0" ry="9.5" fill="url(#g13)"/><ellipse cx="235.0" cy="206.4" rx="19.0" ry="6.2" fill="none" stroke="#fff" stroke-opacity=".4" stroke-width="1.5"/><g transform="translate(237 138) rotate(-18)"><circle cx="9.0" cy="13.4" r="112.0" fill="url(#g17)"/><circle r="112.0" fill="url(#g15)"/><circle r="95.2" fill="url(#g16)"/><circle r="82.9" fill="none" stroke="#fff" stroke-opacity=".35" stroke-width="2.2"/><g transform="translate(-2 2) scale(1.030)" stroke="#fff" stroke-width="16" stroke-linecap="round" stroke-linejoin="round" fill="none"><path d="M3 -24A38 38 0 1 0 3 24" transform="translate(-14 0)"/><path d="M22 -36V36M22 -36H38A20 20 0 0 1 38 4H22" transform="translate(-2 0)"/></g><path d="M-80.6 -28.0 A89.6 89.6 0 0 1 11.2 -87.4 A112.0 112.0 0 0 0 -80.6 -28.0 Z" fill="#fff" fill-opacity=".28"/></g><path d="M262 74 l1.5 4.5 4.5 1.5 -4.5 1.5 -1.5 4.5 z" fill="#fff" fill-opacity="0.60"/><path d="M459 125 l2.0 6.0 6.0 2.0 -6.0 2.0 -2.0 6.0 z" fill="#fff" fill-opacity="0.75"/><path d="M232 23 l2.0 6.0 6.0 2.0 -6.0 2.0 -2.0 6.0 z" fill="#fff" fill-opacity="0.60"/><path d="M135 195 l3.2 9.8 9.8 3.2 -9.8 3.2 -3.2 9.8 z" fill="#fff" fill-opacity="0.75"/><path d="M162 56 l3.2 9.8 9.8 3.2 -9.8 3.2 -3.2 9.8 z" fill="#fff" fill-opacity="0.90"/><path d="M185 243 l2.5 7.5 7.5 2.5 -7.5 2.5 -2.5 7.5 z" fill="#fff" fill-opacity="0.90"/><path d="M409 259 l1.5 4.5 4.5 1.5 -4.5 1.5 -1.5 4.5 z" fill="#fff" fill-opacity="0.75"/><circle cx="358" cy="275" r="2" fill="#fff" fill-opacity=".55"/><circle cx="39" cy="254" r="3" fill="#fff" fill-opacity=".55"/><circle cx="497" cy="136" r="2" fill="#fff" fill-opacity=".55"/></g></svg>