<svg xmlns="http://www.w3.org/2000/svg" viewBox="0 0 600 300" preserveAspectRatio="xMidYMid slice" xmlns:c2pa="http://c2pa.org/manifest"><metadata><c2pa:manifest>AAAWgmp1bWIAAAAeanVtZGMycGEAEQAQgAAAqgA4m3EDYzJwYQAAABZcanVtYgAAAEdqdW1kYzJtYQARABCAAACqADibcQN1cm46YzJwYTo2M2EzODNjMi0yNzE0LTQ0NmQtOWM2Ny01OWIxNjFiOTA2ODkAAAADl2p1bWIAAAApanVtZGMyYXMAEQAQgAAAqgA4m3EDYzJwYS5hc3NlcnRpb25zAAAAALxqdW1iAAAARGp1bWRjYm9yABEAEIAAAKoAOJtxE2MycGEuaW5ncmVkaWVudC52MwAAAAAYYzJzaNKyARrRSF7jd+k/NmurVOAAAABwY2JvcqNpZGM6Zm9ybWF0bWltYWdlL3N2Zyt4bWxqaW5zdGFuY2VJRHgseG1wOmlpZDpkZDliOTI0YS0yNmI1LTRhMGItYWYxMi1mMjM2YzViNGUyNDJscmVsYXRpb25zaGlwaHBhcmVudE9mAAAB4mp1bWIAAABBanVtZGNib3IAEQAQgAAAqgA4m3ETYzJwYS5hY3Rpb25zLnYyAAAAABhjMnNotvdESZSalbmEtx1r44HqCQAAAZljYm9yomdhY3Rpb25zgqJmYWN0aW9ua2MycGEub3BlbmVkanBhcmFtZXRlcnOha2luZ3JlZGllbnRzgaJjdXJseC1zZWxmI2p1bWJmPWMycGEuYXNzZXJ0aW9ucy9jMnBhLmluZ3JlZGllbnQudjNkaGFzaFggWNtQ0f1YFm2xDDkP+5NCl8a75PjUVShBNO2AtPgcgPSkZmFjdGlvbngdY29tLmFudGhyb3BpYy5jbGF1ZGUucHJvdmlkZWRqcGFyYW1ldGVyc6F4H2NvbS5hbnRocm9waWMub3JpZ2luLWNvbmZpZGVuY2VndW5rbm93bmtkZXNjcmlwdGlvbnhmQ2xhdWRlIHByb3ZpZGVkIHRoaXMgZmlsZSBhdCB0aGUgcmVxdWVzdCBvZiBhIHVzZXIgYW5kIG1heSBoYXZlIGNyZWF0ZWQgb3IgbW9kaWZpZWQgdGhlIGZpbGUgY29udGVudHMubXNvZnR3YXJlQWdlbnShZG5hbWVmQ2xhdWRlcmFsbEFjdGlvbnNJbmNsdWRlZPUAAADIanVtYgAAAEBqdW1kY2JvcgARABCAAACqADibcRNjMnBhLmhhc2guZGF0YQAAAAAYYzJzaNLJPSReb7l8e9OqCzgTK/sAAACAY2JvcqVjYWxnZnNoYTI1NmNwYWRNAAAAAAAAAAAAAAAAAGRoYXNoWCDRg4oXriWebhhsK276dywFpOGgXa/es3BdujJ8GKUleWRuYW1lbmp1bWJmIG1hbmlmZXN0amV4Y2x1c2lvbnOBomVzdGFydBiiZmxlbmd0aBkeBAAAAj5qdW1iAAAAJ2p1bWRjMmNsABEAEIAAAKoAOJtxA2MycGEuY2xhaW0udjIAAAACD2Nib3KlY2FsZ2ZzaGEyNTZpc2lnbmF0dXJleE1zZWxmI2p1bWJmPS9jMnBhL3VybjpjMnBhOjYzYTM4M2MyLTI3MTQtNDQ2ZC05YzY3LTU5YjE2MWI5MDY4OS9jMnBhLnNpZ25hdHVyZWppbnN0YW5jZUlEeCx4bXA6aWlkOmJkOTJhYzg4LTE1YmYtNDI5MS04NzBlLTBkNGI3YTYzNzljMHJjcmVhdGVkX2Fzc2VydGlvbnODomN1cmx4LXNlbGYjanVtYmY9YzJwYS5hc3NlcnRpb25zL2MycGEuaW5ncmVkaWVudC52M2RoYXNoWCBY21DR/VgWbbEMOQ/7k0KXxrvk+NRVKEE07YC0+ByA9KJjdXJseCpzZWxmI2p1bWJmPWMycGEuYXNzZXJ0aW9ucy9jMnBhLmFjdGlvbnMudjJkaGFzaFggpdv0jNDR1hf4uLAVmbm5ieEooKvA4ASuv63uX3TyyLaiY3VybHgpc2VsZiNqdW1iZj1jMnBhLmFzc2VydGlvbnMvYzJwYS5oYXNoLmRhdGFkaGFzaFggwjz8U1cxYsTXuAHn/uy0h3c3MAlGVBJMSEG9MWNKVYB0Y2xhaW1fZ2VuZXJhdG9yX2luZm+jZG5hbWVvQW50aHJvcGljIEZpbGVzZ3ZlcnNpb25lMS4wLjBrc3BlY1ZlcnNpb25lMi40LjAAABA4anVtYgAAAChqdW1kYzJjcwARABCAAACqADibcQNjMnBhLnNpZ25hdHVyZQAAABAIY2JvctKEWQISogEmGCFZAgowggIGMIIBjaADAgECAhRA5aAK7sI50L64g/oGQgU9Z1UTADAKBggqhkjOPQQDAzBJMRcwFQYDVQQKEw5BbnRocm9waWMsIFBCQzEuMCwGA1UEAxMlQW50aHJvcGljIENvbnRlbnQgQ3JlZGVudGlhbHMgUm9vdCBDQTAeFw0yNjA4MDcxODQzNTZaFw0yODA4MDYxOTQzNTZaMEQxFzAVBgNVBAoTDkFudGhyb3BpYywgUEJDMSkwJwYDVQQDEyBBbnRocm9waWMgQ2xhdWRlIENvbnRlbnQgU2lnbmluZzBZMBMGByqGSM49AgEGCCqGSM49AwEHA0IABJh6CmvLUBgFFNU0vUKlOVtE6djd17L5SuwX0LemFisBM3dkd/3cyjxFA3Qo5S46fX0/ihY0VZ7mfb9KF703t5OjWDBWMA4GA1UdDwEB/wQEAwIHgDAVBgNVHSUEDjAMBgorBgEEAYPoXgIBMAwGA1UdEwEB/wQCMAAwHwYDVR0jBBgwFoAUzlHiBIFOZFsj+OPEz5o+nMHXXMIwCgYIKoZIzj0EAwMDZwAwZAIwMXMdFJ4BetLLVY7ORuE9noqbbAZOZn/aArXyTwFAZfKrPzxF2vPoJNf1+UCdg1XGAjBwX1zd9WGqYkqmL5SFqw1QySjr1zJfpJM9+1rdDwSPLMOPOjKuiXjoU/pUUeG9RwmhY3BhZFkNngAAAAAAAAAAAAAAAAAAAAAAAAAAAAAAAAAAAAAAAAAAAAAAAAAAAAAAAAAAAAAAAAAAAAAAAAAAAAAAAAAAAAAAAAAAAAAAAAAAAAAAAAAAAAAAAAAAAAAAAAAAAAAAAAAAAAAAAAAAAAAAAAAAAAAAAAAAAAAAAAAAAAAAAAAAAAAAAAAAAAAAAAAAAAAAAAAAAAAAAAAAAAAAAAAAAAAAAAAAAAAAAAAAAAAAAAAAAAAAAAAAAAAAAAAAAAAAAAAAAAAAAAAAAAAAAAAAAAAAAAAAAAAAAAAAAAAAAAAAAAAAAAAAAAAAAAAAAAAAAAAAAAAAAAAAAAAAAAAAAAAAAAAAAAAAAAAAAAAAAAAAAAAAAAAAAAAAAAAAAAAAAAAAAAAAAAAAAAAAAAAAAAAAAAAAAAAAAAAAAAAAAAAAAAAAAAAAAAAAAAAAAAAAAAAAAAAAAAAAAAAAAAAAAAAAAAAAAAAAAAAAAAAAAAAAAAAAAAAAAAAAAAAAAAAAAAAAAAAAAAAAAAAAAAAAAAAAAAAAAAAAAAAAAAAAAAAAAAAAAAAAAAAAAAAAAAAAAAAAAAAAAAAAAAAAAAAAAAAAAAAAAAAAAAAAAAAAAAAAAAAAAAAAAAAAAAAAAAAAAAAAAAAAAAAAAAAAAAAAAAAAAAAAAAAAAAAAAAAAAAAAAAAAAAAAAAAAAAAAAAAAAAAAAAAAAAAAAAAAAAAAAAAAAAAAAAAAAAAAAAAAAAAAAAAAAAAAAAAAAAAAAAAAAAAAAAAAAAAAAAAAAAAAAAAAAAAAAAAAAAAAAAAAAAAAAAAAAAAAAAAAAAAAAAAAAAAAAAAAAAAAAAAAAAAAAAAAAAAAAAAAAAAAAAAAAAAAAAAAAAAAAAAAAAAAAAAAAAAAAAAAAAAAAAAAAAAAAAAAAAAAAAAAAAAAAAAAAAAAAAAAAAAAAAAAAAAAAAAAAAAAAAAAAAAAAAAAAAAAAAAAAAAAAAAAAAAAAAAAAAAAAAAAAAAAAAAAAAAAAAAAAAAAAAAAAAAAAAAAAAAAAAAAAAAAAAAAAAAAAAAAAAAAAAAAAAAAAAAAAAAAAAAAAAAAAAAAAAAAAAAAAAAAAAAAAAAAAAAAAAAAAAAAAAAAAAAAAAAAAAAAAAAAAAAAAAAAAAAAAAAAAAAAAAAAAAAAAAAAAAAAAAAAAAAAAAAAAAAAAAAAAAAAAAAAAAAAAAAAAAAAAAAAAAAAAAAAAAAAAAAAAAAAAAAAAAAAAAAAAAAAAAAAAAAAAAAAAAAAAAAAAAAAAAAAAAAAAAAAAAAAAAAAAAAAAAAAAAAAAAAAAAAAAAAAAAAAAAAAAAAAAAAAAAAAAAAAAAAAAAAAAAAAAAAAAAAAAAAAAAAAAAAAAAAAAAAAAAAAAAAAAAAAAAAAAAAAAAAAAAAAAAAAAAAAAAAAAAAAAAAAAAAAAAAAAAAAAAAAAAAAAAAAAAAAAAAAAAAAAAAAAAAAAAAAAAAAAAAAAAAAAAAAAAAAAAAAAAAAAAAAAAAAAAAAAAAAAAAAAAAAAAAAAAAAAAAAAAAAAAAAAAAAAAAAAAAAAAAAAAAAAAAAAAAAAAAAAAAAAAAAAAAAAAAAAAAAAAAAAAAAAAAAAAAAAAAAAAAAAAAAAAAAAAAAAAAAAAAAAAAAAAAAAAAAAAAAAAAAAAAAAAAAAAAAAAAAAAAAAAAAAAAAAAAAAAAAAAAAAAAAAAAAAAAAAAAAAAAAAAAAAAAAAAAAAAAAAAAAAAAAAAAAAAAAAAAAAAAAAAAAAAAAAAAAAAAAAAAAAAAAAAAAAAAAAAAAAAAAAAAAAAAAAAAAAAAAAAAAAAAAAAAAAAAAAAAAAAAAAAAAAAAAAAAAAAAAAAAAAAAAAAAAAAAAAAAAAAAAAAAAAAAAAAAAAAAAAAAAAAAAAAAAAAAAAAAAAAAAAAAAAAAAAAAAAAAAAAAAAAAAAAAAAAAAAAAAAAAAAAAAAAAAAAAAAAAAAAAAAAAAAAAAAAAAAAAAAAAAAAAAAAAAAAAAAAAAAAAAAAAAAAAAAAAAAAAAAAAAAAAAAAAAAAAAAAAAAAAAAAAAAAAAAAAAAAAAAAAAAAAAAAAAAAAAAAAAAAAAAAAAAAAAAAAAAAAAAAAAAAAAAAAAAAAAAAAAAAAAAAAAAAAAAAAAAAAAAAAAAAAAAAAAAAAAAAAAAAAAAAAAAAAAAAAAAAAAAAAAAAAAAAAAAAAAAAAAAAAAAAAAAAAAAAAAAAAAAAAAAAAAAAAAAAAAAAAAAAAAAAAAAAAAAAAAAAAAAAAAAAAAAAAAAAAAAAAAAAAAAAAAAAAAAAAAAAAAAAAAAAAAAAAAAAAAAAAAAAAAAAAAAAAAAAAAAAAAAAAAAAAAAAAAAAAAAAAAAAAAAAAAAAAAAAAAAAAAAAAAAAAAAAAAAAAAAAAAAAAAAAAAAAAAAAAAAAAAAAAAAAAAAAAAAAAAAAAAAAAAAAAAAAAAAAAAAAAAAAAAAAAAAAAAAAAAAAAAAAAAAAAAAAAAAAAAAAAAAAAAAAAAAAAAAAAAAAAAAAAAAAAAAAAAAAAAAAAAAAAAAAAAAAAAAAAAAAAAAAAAAAAAAAAAAAAAAAAAAAAAAAAAAAAAAAAAAAAAAAAAAAAAAAAAAAAAAAAAAAAAAAAAAAAAAAAAAAAAAAAAAAAAAAAAAAAAAAAAAAAAAAAAAAAAAAAAAAAAAAAAAAAAAAAAAAAAAAAAAAAAAAAAAAAAAAAAAAAAAAAAAAAAAAAAAAAAAAAAAAAAAAAAAAAAAAAAAAAAAAAAAAAAAAAAAAAAAAAAAAAAAAAAAAAAAAAAAAAAAAAAAAAAAAAAAAAAAAAAAAAAAAAAAAAAAAAAAAAAAAAAAAAAAAAAAAAAAAAAAAAAAAAAAAAAAAAAAAAAAAAAAAAAAAAAAAAAAAAAAAAAAAAAAAAAAAAAAAAAAAAAAAAAAAAAAAAAAAAAAAAAAAAAAAAAAAAAAAAAAAAAAAAAAAAAAAAAAAAAAAAAAAAAAAAAAAAAAAAAAAAAAAAAAAAAAAAAAAAAAAAAAAAAAAAAAAAAAAAAAAAAAAAAAAAAAAAAAAAAAAAAAAAAAAAAAAAAAAAAAAAAAAAAAAAAAAAAAAAAAAAAAAAAAAAAAAAAAAAAAAAAAAAAAAAAAAAAAAAAAAAAAAAAAAAAAAAAAAAAAAAAAAAAAAAAAAAAAAAAAAAAAAAAAAAAAAAAAAAAAAAAAAAAAAAAAAAAAAAAAAAAAAAAAAAAAAAAAAAAAAAAAAAAAAAAAAAAAAAAAAAAAAAAAAAAAAAAAAAAAAAAAAAAAAAAAAAAAAAAAAAAAAAAAAAAAAAAAAAAAAAAAAAAAAAAAAAAAAAAAAAAAAAAAAAAAAAAAAAAAAAAAAAAAAAAAAAAAAAAAAAAAAAAAAAAAAAAAAAAAAAAAAAAAAAAAAAAAAAAAAAAAAAAAAAAAAAAAAAAAAAAAAAAAAAAAAAAAAAAAAAAAAAAAAAAAAAAAAAAAAAAAAAAAAAAAAAAAAAAAAAAAAAAAAAAAAAAAAAAAAAAAAAAAAAAAAAAAAAAAAAAAAAAAAAAAAAAAAAAAAAAAAAAAAAAAAAAAAAAAAAAAAAAAAAAAAAAAAAAAAAAAAAAAAAAAAAAAAAAAAAAAAAAAAAAAAAAAAAAAAAAAAAAAAAAAAAAAAAAAAAAAAAAAAAAAAAAAAAAAAAAAAAAAAAAAAAAAAAAAAAAAAAAAAAAAAAAAAAAAAAAAAAAAAAAAAAAAAAAAAAAAAAAAAAAAAAAAAAAAAAAAAAAAAAAAAAAAAAAAAAAAAAAAAAAAAAAAAAAAAAAAAAAAAAAAAAAAAAAAAAAAAAAAAAAAAAAAAAAAAAAAAAAAAAAAAAAAAAAAAAAAAAAAAAAAAAAAAAAAAAAAAAAAAAAAAAAAAAAAAAAAAAAAAAAAAAAAAAAAAAAAAAAAAAAAAAAAAAAAAAAAAAAAAAAAAAAAAAAAAAAAAAAAAAAAAAAAAAAAAAAAAAAAAAAAAAAAAAAAAAAAAAAAAAAAAAAAAAAAAAAAAAAAAAAAAAAAAAAAAAAAAAAAAAAAAAAAAAAAAAAAAAAAAAAAAAAAAAAAAAAAAAAAAAAAAAAAAAAAAAAAAAAAAAAAAAAAAAAAAAAAAAAAAAAAAAAAAAAAAAAAAAAAAAAAAAAAAAAAAAAAAAAAAAAAAAAAAAAAAAAAAAAAAAAAAAAAAAAAAAAAAAAAAAAAAAAAAAAAAAAAAAAAAAAAAAAAAAAAAAAAAAAAAAAAAAAAAAAAAAAAAAAAAAAAAAAAAAAAAAAAAAAAAAAAAAAAAAAAAAAAAAAAAAAAAAAAAAAAAAAAAAAAAAAAAAAAAAAAAAAAAAAAAAAAAAAAAAAAAAAAAAAAAAAAAAAAAAAAAAAAAAAAAAAAAAAAAAAAAAAAAAAAAAAAAAAAAAAAAAAAAAAAAAAAAAAAAAAAAAAAAAAAAAAAAAAAAAAAAAAAAAAAAAAAAAAAAAAAAAAAAAAAAAAAAAAAAAAAAAAAAAAAAAAAAAAAAAAAAAAAAAAAAAAAAAAAAAAAAAAAAAAAAAAAAAAAAAAAAAAAAAAAAAAAAAAAAAAAAAAAAAAAAAAAAAAAAAAAAAAAAAAAAAAAPZYQKyLc0ZAkNY1wfNV5OtmHZPd0EULNZADJScs8j9/nXGjhzjhso/ygBnWEjzfWIjAQHl0LWNOtYUnGHYFuOViknY=</c2pa:manifest></metadata><defs><linearGradient id="bg" x1="0" y1="0" x2="1" y2="1"><stop offset="0" stop-color="#221041"/><stop offset="1" stop-color="#0f081b"/></linearGradient><radialGradient id="gl" cx="216" cy="153" r="230" gradientUnits="userSpaceOnUse"><stop offset="0" stop-color="#6f1ff9" stop-opacity=".62"/><stop offset="1" stop-color="#6f1ff9" stop-opacity="0"/></radialGradient><radialGradient id="gl2" cx="518" cy="36" r="170" gradientUnits="userSpaceOnUse"><stop offset="0" stop-color="#e894f9" stop-opacity=".30"/><stop offset="1" stop-color="#e894f9" stop-opacity="0"/></radialGradient><linearGradient id="g1" x1="0" y1="0" x2="1" y2="1"><stop offset="0" stop-color="#ccb1fa"/><stop offset="1" stop-color="#8142ef"/></linearGradient><linearGradient id="g2" x1="0" y1="0" x2="1" y2="0"><stop offset="0" stop-color="#8142ef"/><stop offset="1" stop-color="#3e1682"/></linearGradient><linearGradient id="g3" x1="0" y1="0" x2="1" y2="1"><stop offset="0" stop-color="#ccb1fa"/><stop offset="1" stop-color="#8142ef"/></linearGradient><linearGradient id="g4" x1="0" y1="0" x2="1" y2="0"><stop offset="0" stop-color="#8142ef"/><stop offset="1" stop-color="#3e1682"/></linearGradient><linearGradient id="g5" x1="0" y1="0" x2="1" y2="1"><stop offset="0" stop-color="#ccb1fa"/><stop offset="1" stop-color="#8142ef"/></linearGradient><linearGradient id="g6" x1="0" y1="0" x2="1" y2="0"><stop offset="0" stop-color="#8142ef"/><stop offset="1" stop-color="#3e1682"/></linearGradient><linearGradient id="g7" x1="0" y1="0" x2="1" y2="1"><stop offset="0" stop-color="#ccb1fa"/><stop offset="1" stop-color="#8142ef"/></linearGradient><linearGradient id="g8" x1="0" y1="0" x2="1" y2="0"><stop offset="0" stop-color="#8142ef"/><stop offset="1" stop-color="#3e1682"/></linearGradient><linearGradient id="g9" x1="0" y1="0" x2="1" y2="1"><stop offset="0" stop-color="#ccb1fa"/><stop offset="1" stop-color="#8142ef"/></linearGradient><linearGradient id="g10" x1="0" y1="0" x2="1" y2="0"><stop offset="0" stop-color="#8142ef"/><stop offset="1" stop-color="#3e1682"/></linearGradient><linearGradient id="g11" x1="0" y1="0" x2="1" y2="1"><stop offset="0" stop-color="#ccb1fa"/><stop offset="1" stop-color="#8142ef"/></linearGradient><linearGradient id="g12" x1="0" y1="0" x2="1" y2="1"><stop offset="0" stop-color="#8142ef"/><stop offset="1" stop-color="#3e1682"/></linearGradient><linearGradient id="g13" x1="0" y1="0" x2="0" y2="1"><stop offset="0" stop-color="#3e1682"/><stop offset="1" stop-color="#250d4e"/></linearGradient></defs><rect width="600" height="300" fill="url(#bg)"/><rect width="600" height="300" fill="url(#gl)"/><rect width="600" height="300" fill="url(#gl2)"/><path d="M-20 274 C150 166 330 266 620 224" fill="none" stroke="#ccb1fa" stroke-opacity=".18" stroke-width="2"/><path d="M-20 269 C170 171 350 271 620 259" fill="none" stroke="#ccb1fa" stroke-opacity=".10" stroke-width="2"/><g transform="translate(235 146) scale(1.18) translate(-235 -146)"><ellipse cx="235" cy="262" rx="168" ry="20" fill="#000" fill-opacity=".38"/><ellipse cx="417.0" cy="256.0" rx="25.0" ry="8.5" fill="#250d4e"/><rect x="392.0" y="247.5" width="50.0" height="8.5" fill="url(#g2)"/><ellipse cx="417.0" cy="247.5" rx="25.0" ry="8.5" fill="url(#g1)"/><ellipse cx="417.0" cy="247.5" rx="17.0" ry="5.5" fill="none" stroke="#fff" stroke-opacity=".4" stroke-width="1.5"/><ellipse cx="417.0" cy="247.5" rx="25.0" ry="8.5" fill="#250d4e"/><rect x="392.0" y="239.0" width="50.0" height="8.5" fill="url(#g2)"/><ellipse cx="417.0" cy="239.0" rx="25.0" ry="8.5" fill="url(#g1)"/><ellipse cx="417.0" cy="239.0" rx="17.0" ry="5.5" fill="none" stroke="#fff" stroke-opacity=".4" stroke-width="1.5"/><ellipse cx="417.0" cy="239.0" rx="25.0" ry="8.5" fill="#250d4e"/><rect x="392.0" y="230.5" width="50.0" height="8.5" fill="url(#g2)"/><ellipse cx="417.0" cy="230.5" rx="25.0" ry="8.5" fill="url(#g1)"/><ellipse cx="417.0" cy="230.5" rx="17.0" ry="5.5" fill="none" stroke="#fff" stroke-opacity=".4" stroke-width="1.5"/><ellipse cx="417.0" cy="230.5" rx="25.0" ry="8.5" fill="#250d4e"/><rect x="392.0" y="222.0" width="50.0" height="8.5" fill="url(#g2)"/><ellipse cx="417.0" cy="222.0" rx="25.0" ry="8.5" fill="url(#g1)"/><ellipse cx="417.0" cy="222.0" rx="17.0" ry="5.5" fill="none" stroke="#fff" stroke-opacity=".4" stroke-width="1.5"/><ellipse cx="53.0" cy="258.0" rx="24.0" ry="8.2" fill="#250d4e"/><rect x="29.0" y="249.8" width="48.0" height="8.2" fill="url(#g4)"/><ellipse cx="53.0" cy="249.8" rx="24.0" ry="8.2" fill="url(#g3)"/><ellipse cx="53.0" cy="249.8" rx="16.3" ry="5.3" fill="none" stroke="#fff" stroke-opacity=".4" stroke-width="1.5"/><ellipse cx="326.0" cy="253.0" rx="26.5" ry="9.0" fill="#250d4e"/><rect x="299.5" y="244.0" width="53.0" height="9.0" fill="url(#g6)"/><ellipse cx="326.0" cy="244.0" rx="26.5" ry="9.0" fill="url(#g5)"/><ellipse cx="326.0" cy="244.0" rx="18.0" ry="5.8" fill="none" stroke="#fff" stroke-opacity=".4" stroke-width="1.5"/><ellipse cx="326.0" cy="244.0" rx="26.5" ry="9.0" fill="#250d4e"/><rect x="299.5" y="235.0" width="53.0" height="9.0" fill="url(#g6)"/><ellipse cx="326.0" cy="235.0" rx="26.5" ry="9.0" fill="url(#g5)"/><ellipse cx="326.0" cy="235.0" rx="18.0" ry="5.8" fill="none" stroke="#fff" stroke-opacity=".4" stroke-width="1.5"/><ellipse cx="144.0" cy="253.0" rx="26.5" ry="9.0" fill="#250d4e"/><rect x="117.5" y="244.0" width="53.0" height="9.0" fill="url(#g8)"/><ellipse cx="144.0" cy="244.0" rx="26.5" ry="9.0" fill="url(#g7)"/><ellipse cx="144.0" cy="244.0" rx="18.0" ry="5.8" fill="none" stroke="#fff" stroke-opacity=".4" stroke-width="1.5"/><ellipse cx="144.0" cy="244.0" rx="26.5" ry="9.0" fill="#250d4e"/><rect x="117.5" y="235.0" width="53.0" height="9.0" fill="url(#g8)"/><ellipse cx="144.0" cy="235.0" rx="26.5" ry="9.0" fill="url(#g7)"/><ellipse cx="144.0" cy="235.0" rx="18.0" ry="5.8" fill="none" stroke="#fff" stroke-opacity=".4" stroke-width="1.5"/><ellipse cx="144.0" cy="235.0" rx="26.5" ry="9.0" fill="#250d4e"/><rect x="117.5" y="226.0" width="53.0" height="9.0" fill="url(#g8)"/><ellipse cx="144.0" cy="226.0" rx="26.5" ry="9.0" fill="url(#g7)"/><ellipse cx="144.0" cy="226.0" rx="18.0" ry="5.8" fill="none" stroke="#fff" stroke-opacity=".4" stroke-width="1.5"/><ellipse cx="144.0" cy="226.0" rx="26.5" ry="9.0" fill="#250d4e"/><rect x="117.5" y="217.0" width="53.0" height="9.0" fill="url(#g8)"/><ellipse cx="144.0" cy="217.0" rx="26.5" ry="9.0" fill="url(#g7)"/><ellipse cx="144.0" cy="217.0" rx="18.0" ry="5.8" fill="none" stroke="#fff" stroke-opacity=".4" stroke-width="1.5"/><ellipse cx="144.0" cy="217.0" rx="26.5" ry="9.0" fill="#250d4e"/><rect x="117.5" y="207.9" width="53.0" height="9.0" fill="url(#g8)"/><ellipse cx="144.0" cy="207.9" rx="26.5" ry="9.0" fill="url(#g7)"/><ellipse cx="144.0" cy="207.9" rx="18.0" ry="5.8" fill="none" stroke="#fff" stroke-opacity=".4" stroke-width="1.5"/><ellipse cx="235.0" cy="253.0" rx="25.0" ry="8.5" fill="#250d4e"/><rect x="210.0" y="244.5" width="50.0" height="8.5" fill="url(#g10)"/><ellipse cx="235.0" cy="244.5" rx="25.0" ry="8.5" fill="url(#g9)"/><ellipse cx="235.0" cy="244.5" rx="17.0" ry="5.5" fill="none" stroke="#fff" stroke-opacity=".4" stroke-width="1.5"/><ellipse cx="235.0" cy="244.5" rx="25.0" ry="8.5" fill="#250d4e"/><rect x="210.0" y="236.0" width="50.0" height="8.5" fill="url(#g10)"/><ellipse cx="235.0" cy="236.0" rx="25.0" ry="8.5" fill="url(#g9)"/><ellipse cx="235.0" cy="236.0" rx="17.0" ry="5.5" fill="none" stroke="#fff" stroke-opacity=".4" stroke-width="1.5"/><ellipse cx="235.0" cy="236.0" rx="25.0" ry="8.5" fill="#250d4e"/><rect x="210.0" y="227.5" width="50.0" height="8.5" fill="url(#g10)"/><ellipse cx="235.0" cy="227.5" rx="25.0" ry="8.5" fill="url(#g9)"/><ellipse cx="235.0" cy="227.5" rx="17.0" ry="5.5" fill="none" stroke="#fff" stroke-opacity=".4" stroke-width="1.5"/><ellipse cx="235.0" cy="227.5" rx="25.0" ry="8.5" fill="#250d4e"/><rect x="210.0" y="219.0" width="50.0" height="8.5" fill="url(#g10)"/><ellipse cx="235.0" cy="219.0" rx="25.0" ry="8.5" fill="url(#g9)"/><ellipse cx="235.0" cy="219.0" rx="17.0" ry="5.5" fill="none" stroke="#fff" stroke-opacity=".4" stroke-width="1.5"/><ellipse cx="235.0" cy="219.0" rx="25.0" ry="8.5" fill="#250d4e"/><rect x="210.0" y="210.5" width="50.0" height="8.5" fill="url(#g10)"/><ellipse cx="235.0" cy="210.5" rx="25.0" ry="8.5" fill="url(#g9)"/><ellipse cx="235.0" cy="210.5" rx="17.0" ry="5.5" fill="none" stroke="#fff" stroke-opacity=".4" stroke-width="1.5"/><ellipse cx="235.0" cy="210.5" rx="25.0" ry="8.5" fill="#250d4e"/><rect x="210.0" y="202.0" width="50.0" height="8.5" fill="url(#g10)"/><ellipse cx="235.0" cy="202.0" rx="25.0" ry="8.5" fill="url(#g9)"/><ellipse cx="235.0" cy="202.0" rx="17.0" ry="5.5" fill="none" stroke="#fff" stroke-opacity=".4" stroke-width="1.5"/><g transform="translate(231 142) rotate(-13)"><circle cx="7.5" cy="11.3" r="94.0" fill="url(#g13)"/><circle r="94.0" fill="url(#g11)"/><circle r="79.9" fill="url(#g12)"/><circle r="69.6" fill="none" stroke="#fff" stroke-opacity=".35" stroke-width="1.9"/><g transform="translate(-2 2) scale(0.865)" stroke="#fff" stroke-width="16" stroke-linecap="round" stroke-linejoin="round" fill="none"><path d="M3 -24A38 38 0 1 0 3 24" transform="translate(-14 0)"/><path d="M22 -36V36M22 -36H38A20 20 0 0 1 38 4H22" transform="translate(-2 0)"/></g><path d="M-67.7 -23.5 A75.2 75.2 0 0 1 9.4 -73.3 A94.0 94.0 0 0 0 -67.7 -23.5 Z" fill="#fff" fill-opacity=".28"/></g><path d="M121 76 l3.2 9.8 9.8 3.2 -9.8 3.2 -3.2 9.8 z" fill="#fff" fill-opacity="0.60"/><path d="M142 168 l2.5 7.5 7.5 2.5 -7.5 2.5 -2.5 7.5 z" fill="#fff" fill-opacity="0.90"/><path d="M194 29 l2.5 7.5 7.5 2.5 -7.5 2.5 -2.5 7.5 z" fill="#fff" fill-opacity="0.90"/><path d="M31 129 l1.5 4.5 4.5 1.5 -4.5 1.5 -1.5 4.5 z" fill="#fff" fill-opacity="0.60"/><path d="M510 38 l2.5 7.5 7.5 2.5 -7.5 2.5 -2.5 7.5 z" fill="#fff" fill-opacity="0.75"/><path d="M433 187 l1.5 4.5 4.5 1.5 -4.5 1.5 -1.5 4.5 z" fill="#fff" fill-opacity="0.75"/><circle cx="569" cy="48" r="3" fill="#fff" fill-opacity=".55"/><circle cx="227" cy="66" r="3" fill="#fff" fill-opacity=".55"/><circle cx="335" cy="245" r="2" fill="#fff" fill-opacity=".55"/></g></svg>